<svg width="16" height="16" viewBox="0 0 16 16" fill="none" xmlns="http://www.w3.org/2000/svg">
<path d="M3.00016 14.6667C2.7335 14.6667 2.50016 14.5583 2.30016 14.3417C2.10016 14.125 2.00016 13.8889 2.00016 13.6333V5.43334C1.84461 5.41112 1.69461 5.30001 1.55016 5.10001C1.40572 4.90001 1.3335 4.68334 1.3335 4.45001V2.33334C1.3335 2.07779 1.4335 1.84723 1.6335 1.64168C1.8335 1.43612 2.06683 1.33334 2.3335 1.33334H13.6668C13.9224 1.33334 14.1529 1.43612 14.3585 1.64168C14.5641 1.84723 14.6668 2.07779 14.6668 2.33334V4.45001C14.6668 4.68334 14.5946 4.90001 14.4502 5.10001C14.3057 5.30001 14.1557 5.41112 14.0002 5.43334V13.6333C14.0002 13.8889 13.8974 14.125 13.6918 14.3417C13.4863 14.5583 13.2557 14.6667 13.0002 14.6667H3.00016ZM3.00016 5.45001V13.6667H13.0002V5.45001H3.00016ZM13.6668 4.45001V2.33334H2.3335V4.45001H13.6668ZM6.50016 8.95001H9.50016C9.64461 8.95001 9.76405 8.90279 9.8585 8.80834C9.95294 8.7139 10.0002 8.59445 10.0002 8.45001C10.0002 8.30557 9.95294 8.18612 9.8585 8.09168C9.76405 7.99723 9.64461 7.95001 9.50016 7.95001H6.50016C6.35572 7.95001 6.23627 7.99723 6.14183 8.09168C6.04738 8.18612 6.00016 8.30557 6.00016 8.45001C6.00016 8.59445 6.04738 8.7139 6.14183 8.80834C6.23627 8.90279 6.35572 8.95001 6.50016 8.95001Z" fill="#D6D6D6"/>
</svg>
