<svg width="48" height="48" viewBox="0 0 48 48" fill="none" xmlns="http://www.w3.org/2000/svg">
<path d="M7 33L18.5 26.5" stroke="#19191B" stroke-width="3"/>
<path d="M24.4804 18.7122L24.6541 5.50346" stroke="#19191B" stroke-width="3"/>
<path d="M41 32.5L29.85 26.424" stroke="#19191B" stroke-width="3"/>
<path d="M24 43.55C23.7333 43.55 23.475 43.5167 23.225 43.45C22.975 43.3833 22.7333 43.2833 22.5 43.15L7.5 34.55C7.03333 34.2833 6.66667 33.925 6.4 33.475C6.13333 33.025 6 32.5167 6 31.95V15.55C6 14.9833 6.14167 14.4667 6.425 14C6.70833 13.5333 7.08333 13.1667 7.55 12.9L22.55 4.74999C22.7833 4.61666 23.0167 4.52499 23.25 4.47499C23.4833 4.42499 23.7333 4.39999 24 4.39999C24.2667 4.39999 24.5167 4.42499 24.75 4.47499C24.9833 4.52499 25.2167 4.61666 25.45 4.74999L40.45 12.9C40.9167 13.1667 41.2917 13.5333 41.575 14C41.8583 14.4667 42 14.9833 42 15.55V31.95C42 32.5167 41.8667 33.025 41.6 33.475C41.3333 33.925 40.9667 34.2833 40.5 34.55L25.5 43.15C25.2667 43.2833 25.025 43.3833 24.775 43.45C24.525 43.5167 24.2667 43.55 24 43.55ZM18.3 19.1C19.0667 18.3333 19.9417 17.7083 20.925 17.225C21.9083 16.7417 22.9333 16.5 24 16.5C25.0667 16.5 26.0917 16.7417 27.075 17.225C28.0583 17.7083 28.9333 18.3333 29.7 19.1L37.35 14.6L24 7.49999L10.65 14.6L18.3 19.1ZM22.5 39.7V31.35C20.7667 30.8833 19.3333 29.975 18.2 28.625C17.0667 27.275 16.5 25.7333 16.5 24C16.5 23.6667 16.5167 23.3167 16.55 22.95C16.5833 22.5833 16.6833 22.1833 16.85 21.75L9 17.1V31.95L22.5 39.7ZM24 28.5C25.2667 28.5 26.3333 28.0583 27.2 27.175C28.0667 26.2917 28.5 25.2333 28.5 24C28.5 22.7333 28.0667 21.6667 27.2 20.8C26.3333 19.9333 25.2667 19.5 24 19.5C22.7667 19.5 21.7083 19.9333 20.825 20.8C19.9417 21.6667 19.5 22.7333 19.5 24C19.5 25.2333 19.9417 26.2917 20.825 27.175C21.7083 28.0583 22.7667 28.5 24 28.5ZM25.5 39.7L39 31.95V17.1L31.15 21.75C31.3167 22.2167 31.4167 22.625 31.45 22.975C31.4833 23.325 31.5 23.6667 31.5 24C31.5 25.7333 30.9333 27.275 29.8 28.625C28.6667 29.975 27.2333 30.8833 25.5 31.35V39.7Z" fill="url(#paint0_linear_16_112)"/>
<defs>
<linearGradient id="paint0_linear_16_112" x1="42" y1="24" x2="6" y2="25.5" gradientUnits="userSpaceOnUse">
<stop stop-color="#FF7C32"/>
<stop offset="1" stop-color="#FF5C00"/>
</linearGradient>
</defs>
</svg>
