<svg width="16" height="16" viewBox="0 0 16 16" fill="none" xmlns="http://www.w3.org/2000/svg">
<path d="M4.86667 7.56669C5.06667 7.16669 5.28056 6.77225 5.50833 6.38336C5.73611 5.99447 5.97778 5.62225 6.23333 5.26669L4.91667 5.00002L3.1 6.81669L4.86667 7.56669ZM13.45 2.36669C12.3167 2.42225 11.2944 2.66391 10.3833 3.09169C9.47222 3.51947 8.58333 4.16669 7.71667 5.03336C7.37222 5.3778 7.01667 5.8278 6.65 6.38336C6.28333 6.93891 5.95556 7.53336 5.66667 8.16669L7.88333 10.3834C8.51667 10.0945 9.11111 9.76669 9.66667 9.40002C10.2222 9.03336 10.6722 8.6778 11.0167 8.33336C11.8833 7.46669 12.5306 6.58058 12.9583 5.67502C13.3861 4.76947 13.6278 3.75002 13.6833 2.61669C13.6833 2.58336 13.6778 2.55002 13.6667 2.51669C13.6556 2.48336 13.6389 2.45558 13.6167 2.43336C13.5944 2.41113 13.5694 2.39447 13.5417 2.38336C13.5139 2.37225 13.4833 2.36669 13.45 2.36669ZM9.5 6.56669C9.27778 6.34447 9.16667 6.06947 9.16667 5.74169C9.16667 5.41391 9.27778 5.13891 9.5 4.91669C9.72222 4.69447 9.99722 4.58336 10.325 4.58336C10.6528 4.58336 10.9278 4.69447 11.15 4.91669C11.3722 5.13891 11.4833 5.41391 11.4833 5.74169C11.4833 6.06947 11.3722 6.34447 11.15 6.56669C10.9278 6.78891 10.6528 6.90002 10.325 6.90002C9.99722 6.90002 9.72222 6.78891 9.5 6.56669ZM8.48333 11.2L9.23333 12.95L11.05 11.1334L10.8 9.81669C10.4444 10.0722 10.0694 10.3167 9.675 10.55C9.28056 10.7834 8.88333 11 8.48333 11.2ZM14.7 1.88336C14.7333 3.27225 14.5083 4.5528 14.025 5.72502C13.5417 6.89725 12.7778 8.00558 11.7333 9.05002C11.7222 9.06113 11.7111 9.06947 11.7 9.07502C11.6889 9.08058 11.6778 9.08891 11.6667 9.10002L12.0333 10.9334C12.0667 11.1 12.0611 11.2611 12.0167 11.4167C11.9722 11.5722 11.8889 11.7111 11.7667 11.8334L9.41667 14.1834C9.29445 14.3056 9.14722 14.35 8.975 14.3167C8.80278 14.2834 8.68333 14.1834 8.61667 14.0167L7.48333 11.4L4.66667 8.56669L2.03333 7.45002C1.86667 7.38336 1.76944 7.26113 1.74167 7.08336C1.71389 6.90558 1.76111 6.75558 1.88333 6.63336L4.21667 4.30002C4.33889 4.1778 4.47778 4.09169 4.63333 4.04169C4.78889 3.99169 4.95 3.98336 5.11667 4.01669L6.95 4.38336C6.96111 4.37225 6.97222 4.36391 6.98333 4.35836C6.99444 4.3528 7.00556 4.34447 7.01667 4.33336C8.06111 3.28891 9.16667 2.52502 10.3333 2.04169C11.5 1.55836 12.7778 1.33336 14.1667 1.36669C14.2333 1.36669 14.2972 1.38058 14.3583 1.40836C14.4194 1.43613 14.4778 1.4778 14.5333 1.53336C14.5889 1.58891 14.6306 1.64447 14.6583 1.70002C14.6861 1.75558 14.7 1.81669 14.7 1.88336ZM2.48333 10.5834C2.87222 10.1945 3.34722 9.99725 3.90833 9.99169C4.46944 9.98614 4.94444 10.1778 5.33333 10.5667C5.72222 10.9556 5.91389 11.4306 5.90833 11.9917C5.90278 12.5528 5.70556 13.0278 5.31667 13.4167C5.02778 13.7056 4.58056 13.9445 3.975 14.1334C3.36944 14.3222 2.46111 14.5 1.25 14.6667C1.41667 13.4556 1.59167 12.5445 1.775 11.9334C1.95833 11.3222 2.19444 10.8722 2.48333 10.5834ZM3.18333 11.3C3.02778 11.4667 2.88889 11.7278 2.76667 12.0834C2.64444 12.4389 2.53889 12.8945 2.45 13.45C3.00556 13.3611 3.46111 13.2556 3.81667 13.1334C4.17222 13.0111 4.43333 12.8722 4.6 12.7167C4.81111 12.5278 4.91944 12.2917 4.925 12.0084C4.93056 11.725 4.83333 11.4778 4.63333 11.2667C4.42222 11.0667 4.175 10.9695 3.89167 10.975C3.60833 10.9806 3.37222 11.0889 3.18333 11.3Z" fill="#D6D6D6"/>
</svg>
