<svg width="16" height="16" viewBox="0 0 16 16" fill="none" xmlns="http://www.w3.org/2000/svg">
<path d="M6.68317 14.3833C6.88317 14.5833 7.12484 14.6833 7.40817 14.6833C7.6915 14.6833 7.93317 14.5833 8.13317 14.3833L14.3832 8.13334C14.4943 8.02223 14.5693 7.90557 14.6082 7.78334C14.6471 7.66112 14.6665 7.53334 14.6665 7.40001V2.33334C14.6665 2.04445 14.5721 1.80557 14.3832 1.61668C14.1943 1.42779 13.9554 1.33334 13.6665 1.33334H8.59984C8.4665 1.33334 8.33317 1.35279 8.19984 1.39168C8.0665 1.43057 7.94428 1.50557 7.83317 1.61668L1.6165 7.83334C1.40539 8.04445 1.29984 8.29168 1.29984 8.57501C1.29984 8.85834 1.40539 9.10557 1.6165 9.31668L6.68317 14.3833ZM7.3665 13.7L2.29984 8.63334L8.59984 2.33334H13.6665V7.40001L7.3665 13.7ZM11.9165 4.93334C11.6832 4.93334 11.4804 4.84723 11.3082 4.67501C11.1359 4.50279 11.0498 4.30001 11.0498 4.06668C11.0498 3.83334 11.1359 3.63057 11.3082 3.45834C11.4804 3.28612 11.6832 3.20001 11.9165 3.20001C12.1498 3.20001 12.3526 3.28612 12.5248 3.45834C12.6971 3.63057 12.7832 3.83334 12.7832 4.06668C12.7832 4.30001 12.6971 4.50279 12.5248 4.67501C12.3526 4.84723 12.1498 4.93334 11.9165 4.93334Z" fill="#F5F5F5"/>
</svg>
