<svg width="25" height="25" viewBox="0 0 25 25" fill="none" xmlns="http://www.w3.org/2000/svg">
<g clip-path="url(#clip0_10_203)">
<path d="M12.5 25C19.4036 25 25 19.4036 25 12.5C25 5.59644 19.4036 0 12.5 0C5.59644 0 0 5.59644 0 12.5C0 19.4036 5.59644 25 12.5 25Z" fill="#323138"/>
<path d="M18.5839 7.19233L16.3524 18.4472C16.3524 18.4472 16.0399 19.2285 15.1806 18.8525L10.0292 14.9023L8.15421 13.999L4.99992 12.9394C4.99992 12.9394 4.51652 12.7685 4.46769 12.3925C4.41886 12.0166 5.01456 11.8163 5.01456 11.8163L17.5537 6.89936C17.5537 6.89448 18.5839 6.44038 18.5839 7.19233Z" fill="white"/>
<path d="M9.62891 18.3203C9.62891 18.3203 9.4775 18.3056 9.292 17.7148C9.10641 17.124 8.1543 13.999 8.1543 13.999L15.7276 9.18939C15.7276 9.18939 16.167 8.92572 16.1475 9.18939C16.1475 9.18939 16.2256 9.23822 15.9912 9.45314C15.7568 9.67281 10.0439 14.8096 10.0439 14.8096" fill="#D2E4F0"/>
<path d="M12.002 16.416L9.96587 18.2763C9.96587 18.2763 9.80471 18.3984 9.63379 18.3203L10.0245 14.8682" fill="#B5CFE4"/>
</g>
<defs>
<clipPath id="clip0_10_203">
<rect width="25" height="25" fill="white"/>
</clipPath>
</defs>
</svg>
