<svg width="25" height="25" viewBox="0 0 25 25" fill="none" xmlns="http://www.w3.org/2000/svg">
<g clip-path="url(#clip0_10_195)">
<path d="M12.5 25C19.4036 25 25 19.4036 25 12.5C25 5.59644 19.4036 0 12.5 0C5.59644 0 0 5.59644 0 12.5C0 19.4036 5.59644 25 12.5 25Z" fill="#C4C4C4"/>
<path d="M12.5 25C19.4036 25 25 19.4036 25 12.5C25 5.59644 19.4036 0 12.5 0C5.59644 0 0 5.59644 0 12.5C0 19.4036 5.59644 25 12.5 25Z" fill="#323138"/>
<path fill-rule="evenodd" clip-rule="evenodd" d="M16.9257 13.8203C16.7079 13.7119 15.6375 13.1876 15.4379 13.1154C15.2383 13.0431 15.0933 13.0069 14.9482 13.2238C14.8029 13.4407 14.3858 13.9288 14.2588 14.0734C14.1318 14.218 14.0048 14.2361 13.787 14.1276C13.5693 14.0191 12.8678 13.7904 12.0362 13.0521C11.389 12.4776 10.952 11.7681 10.825 11.5511C10.698 11.3342 10.8115 11.217 10.9205 11.1089C11.0184 11.0119 11.1382 10.8559 11.2471 10.7293C11.3559 10.6028 11.3922 10.5124 11.4648 10.3678C11.5373 10.2232 11.5011 10.0966 11.4466 9.98823C11.3922 9.87973 10.9568 8.81331 10.7753 8.37948C10.5987 7.95696 10.4192 8.01414 10.2855 8.00749C10.1587 8.00121 10.0134 7.99988 9.86825 7.99988C9.72309 7.99988 9.48725 8.05411 9.28767 8.27099C9.08809 8.4879 8.52567 9.01215 8.52567 10.0786C8.52567 11.1451 9.30575 12.1754 9.41467 12.3201C9.5235 12.4646 10.9499 14.6532 13.1339 15.5918C13.6533 15.8151 14.0588 15.9483 14.3751 16.0482C14.8966 16.2131 15.3713 16.1898 15.7464 16.1341C16.1647 16.0718 17.0345 15.6098 17.216 15.1037C17.3973 14.5976 17.3973 14.1637 17.3429 14.0734C17.2885 13.983 17.1434 13.9288 16.9257 13.8203ZM12.9531 19.2184H12.9502C11.6506 19.2178 10.376 18.8705 9.26409 18.2137L8.99967 18.0575L6.2586 18.7731L6.99025 16.1134L6.818 15.8408C6.09307 14.6932 5.71022 13.3668 5.71075 12.005C5.71232 8.03101 8.96125 4.79788 12.956 4.79788C14.8904 4.79864 16.7088 5.54936 18.0761 6.9117C19.4434 8.27403 20.1961 10.085 20.1953 12.0108C20.1937 15.9851 16.9448 19.2184 12.9531 19.2184ZM19.1168 5.87646C17.4718 4.23737 15.2839 3.33426 12.9531 3.33331C8.15035 3.33331 4.2415 7.22315 4.2396 12.0044C4.23898 13.5327 4.64016 15.0247 5.40266 16.3396L4.1665 20.8333L8.78559 19.6275C10.0583 20.3183 11.4912 20.6824 12.9496 20.683H12.9532C17.7554 20.683 21.6646 16.7926 21.6665 12.0113C21.6674 9.69423 20.762 7.51555 19.1168 5.87646Z" fill="white"/>
</g>
<defs>
<clipPath id="clip0_10_195">
<rect width="25" height="25" fill="white"/>
</clipPath>
</defs>
</svg>
