<svg width="25" height="25" viewBox="0 0 25 25" fill="none" xmlns="http://www.w3.org/2000/svg">
<path d="M5.78141 18.3594C6.87516 17.5955 7.96023 17.0095 9.03662 16.6016C10.113 16.1936 11.2675 15.9896 12.5002 15.9896C13.7328 15.9896 14.8917 16.1936 15.9767 16.6016C17.0618 17.0095 18.1512 17.5955 19.245 18.3594C20.0088 17.4219 20.5514 16.4757 20.8726 15.5208C21.1937 14.566 21.3543 13.559 21.3543 12.5C21.3543 9.98264 20.508 7.8776 18.8153 6.1849C17.1226 4.49219 15.0175 3.64583 12.5002 3.64583C9.9828 3.64583 7.87777 4.49219 6.18506 6.1849C4.49235 7.8776 3.646 9.98264 3.646 12.5C3.646 13.559 3.81093 14.566 4.14079 15.5208C4.47065 16.4757 5.01752 17.4219 5.78141 18.3594ZM12.5002 13.2813C11.4932 13.2813 10.6469 12.9384 9.9611 12.2526C9.27534 11.5668 8.93245 10.7205 8.93245 9.71354C8.93245 8.7066 9.27534 7.86024 9.9611 7.17448C10.6469 6.48872 11.4932 6.14583 12.5002 6.14583C13.5071 6.14583 14.3535 6.48872 15.0392 7.17448C15.725 7.86024 16.0679 8.7066 16.0679 9.71354C16.0679 10.7205 15.725 11.5668 15.0392 12.2526C14.3535 12.9384 13.5071 13.2813 12.5002 13.2813ZM12.5002 22.9167C11.0766 22.9167 9.73107 22.6432 8.4637 22.0964C7.19634 21.5495 6.08957 20.803 5.14339 19.8568C4.19721 18.9106 3.45068 17.8038 2.90381 16.5365C2.35693 15.2691 2.0835 13.9236 2.0835 12.5C2.0835 11.059 2.35693 9.7092 2.90381 8.45052C3.45068 7.19184 4.19721 6.08941 5.14339 5.14323C6.08957 4.19705 7.19634 3.45052 8.4637 2.90365C9.73107 2.35677 11.0766 2.08333 12.5002 2.08333C13.9411 2.08333 15.291 2.35677 16.5496 2.90365C17.8083 3.45052 18.9108 4.19705 19.8569 5.14323C20.8031 6.08941 21.5496 7.19184 22.0965 8.45052C22.6434 9.7092 22.9168 11.059 22.9168 12.5C22.9168 13.9236 22.6434 15.2691 22.0965 16.5365C21.5496 17.8038 20.8031 18.9106 19.8569 19.8568C18.9108 20.803 17.8083 21.5495 16.5496 22.0964C15.291 22.6432 13.9411 22.9167 12.5002 22.9167ZM12.5002 21.3542C13.455 21.3542 14.3882 21.2153 15.2996 20.9375C16.2111 20.6597 17.1095 20.1736 17.995 19.4792C17.1095 18.8542 16.2068 18.3767 15.2866 18.0469C14.3665 17.717 13.4377 17.5521 12.5002 17.5521C11.5627 17.5521 10.6338 17.717 9.7137 18.0469C8.79357 18.3767 7.89079 18.8542 7.00537 19.4792C7.89079 20.1736 8.78923 20.6597 9.70068 20.9375C10.6121 21.2153 11.5453 21.3542 12.5002 21.3542ZM12.5002 11.7188C13.0904 11.7188 13.5722 11.5321 13.9455 11.1589C14.3187 10.7856 14.5054 10.3038 14.5054 9.71354C14.5054 9.12326 14.3187 8.64149 13.9455 8.26823C13.5722 7.89497 13.0904 7.70833 12.5002 7.70833C11.9099 7.70833 11.4281 7.89497 11.0549 8.26823C10.6816 8.64149 10.495 9.12326 10.495 9.71354C10.495 10.3038 10.6816 10.7856 11.0549 11.1589C11.4281 11.5321 11.9099 11.7188 12.5002 11.7188Z" fill="#F5F5F5"/>
</svg>
