<svg width="24" height="24" viewBox="0 0 24 24" fill="none" xmlns="http://www.w3.org/2000/svg">
<path d="M7.19959 24C6.58946 24 6.07084 23.7897 5.64375 23.3692C5.21665 22.9487 5.00311 22.438 5.00311 21.8373C5.00311 21.2365 5.21665 20.7259 5.64375 20.3054C6.07084 19.8849 6.58946 19.6746 7.19959 19.6746C7.78939 19.6746 8.30292 19.8849 8.74018 20.3054C9.17745 20.7259 9.39608 21.2365 9.39608 21.8373C9.39608 22.438 9.18253 22.9487 8.75544 23.3692C8.32834 23.7897 7.80973 24 7.19959 24ZM19.4023 24C18.7922 24 18.2735 23.7897 17.8464 23.3692C17.4194 22.9487 17.2058 22.438 17.2058 21.8373C17.2058 21.2365 17.4194 20.7259 17.8464 20.3054C18.2735 19.8849 18.7922 19.6746 19.4023 19.6746C19.9921 19.6746 20.5056 19.8849 20.9429 20.3054C21.3801 20.7259 21.5988 21.2365 21.5988 21.8373C21.5988 22.438 21.3852 22.9487 20.9581 23.3692C20.531 23.7897 20.0124 24 19.4023 24ZM5.61324 4.17522L8.96898 11.0238H17.7549L21.5683 4.17522H5.61324ZM6.89453 17.7522C6.04034 17.7522 5.42512 17.4718 5.04887 16.9111C4.67262 16.3504 4.6777 15.7196 5.06412 15.0188L7.01655 11.4743L2.37953 1.80225H0.884696C0.640642 1.80225 0.432179 1.71214 0.259307 1.53191C0.0864358 1.35169 0 1.13141 0 0.871089C0 0.630788 0.0864358 0.425532 0.259307 0.255319C0.432179 0.0851065 0.650811 0 0.915203 0H2.98966C3.1727 0 3.3354 0.0450563 3.47777 0.135169C3.62013 0.225282 3.73199 0.350438 3.81334 0.510638L4.69804 2.37297H22.6665C23.3173 2.37297 23.7292 2.56821 23.902 2.9587C24.0749 3.34919 24.019 3.78473 23.7343 4.26533L19.6158 11.5645C19.4125 11.9049 19.1277 12.2003 18.7617 12.4506C18.3956 12.7009 17.999 12.826 17.5719 12.826H8.32834L6.61996 15.9499H20.7141C20.9581 15.9499 21.1666 16.0401 21.3395 16.2203C21.5123 16.4005 21.5988 16.6108 21.5988 16.8511C21.5988 17.1114 21.5123 17.3267 21.3395 17.4969C21.1666 17.6671 20.948 17.7522 20.6836 17.7522H6.89453Z" fill="#D6D6D6"/>
</svg>
