<svg width="48" height="48" viewBox="0 0 48 48" fill="none" xmlns="http://www.w3.org/2000/svg">
<path d="M21 20.1C21.8667 20.1 22.6 19.8 23.2 19.2C23.8 18.6 24.1 17.8667 24.1 17C24.1 16.1333 23.8 15.4 23.2 14.8C22.6 14.2 21.8667 13.9 21 13.9C20.1333 13.9 19.4 14.2 18.8 14.8C18.2 15.4 17.9 16.1333 17.9 17C17.9 17.8667 18.2 18.6 18.8 19.2C19.4 19.8 20.1333 20.1 21 20.1ZM17 30.1C17.8667 30.1 18.6 29.8 19.2 29.2C19.8 28.6 20.1 27.8667 20.1 27C20.1 26.1333 19.8 25.4 19.2 24.8C18.6 24.2 17.8667 23.9 17 23.9C16.1333 23.9 15.4 24.2 14.8 24.8C14.2 25.4 13.9 26.1333 13.9 27C13.9 27.8667 14.2 28.6 14.8 29.2C15.4 29.8 16.1333 30.1 17 30.1ZM30 32C30.5667 32 31.0417 31.8083 31.425 31.425C31.8083 31.0417 32 30.5667 32 30C32 29.4333 31.8083 28.9583 31.425 28.575C31.0417 28.1917 30.5667 28 30 28C29.4333 28 28.9583 28.1917 28.575 28.575C28.1917 28.9583 28 29.4333 28 30C28 30.5667 28.1917 31.0417 28.575 31.425C28.9583 31.8083 29.4333 32 30 32ZM24 44C21.2667 44 18.6833 43.475 16.25 42.425C13.8167 41.375 11.6917 39.9417 9.875 38.125C8.05833 36.3083 6.625 34.1833 5.575 31.75C4.525 29.3167 4 26.7333 4 24C4 21.2667 4.525 18.6833 5.575 16.25C6.625 13.8167 8.05 11.6833 9.85 9.85C11.65 8.01667 13.75 6.56667 16.15 5.5C18.55 4.43333 21.1 3.9 23.8 3.9C24.8667 3.9 25.725 4.15 26.375 4.65C27.025 5.15 27.4333 5.93333 27.6 7C27.8667 8.93333 28.7 10.575 30.1 11.925C31.5 13.275 33.15 14.0833 35.05 14.35C35.75 14.45 36.3 14.7167 36.7 15.15C37.1 15.5833 37.3833 16.2 37.55 17C37.7167 18.0333 38.15 18.9583 38.85 19.775C39.55 20.5917 40.3833 21.2333 41.35 21.7C42.3833 22.2 43.1 22.8 43.5 23.5C43.9 24.2 44.0333 25.0833 43.9 26.15C43.6667 28.6167 42.9833 30.9333 41.85 33.1C40.7167 35.2667 39.2583 37.1583 37.475 38.775C35.6917 40.3917 33.65 41.6667 31.35 42.6C29.05 43.5333 26.6 44 24 44ZM24 41C28.7333 41 32.6667 39.4417 35.8 36.325C38.9333 33.2083 40.6833 29.3667 41.05 24.8C39.25 24.1333 37.7917 23.1417 36.675 21.825C35.5583 20.5083 34.8667 19 34.6 17.3C31.9 16.9333 29.625 15.7667 27.775 13.8C25.925 11.8333 24.8667 9.55 24.6 6.95C22.1333 6.85 19.825 7.25 17.675 8.15C15.525 9.05 13.6583 10.2833 12.075 11.85C10.4917 13.4167 9.25 15.2583 8.35 17.375C7.45 19.4917 7 21.7 7 24C7 28.7333 8.65 32.75 11.95 36.05C15.25 39.35 19.2667 41 24 41Z" fill="#D6D6D6"/>
</svg>
