<svg width="25" height="25" viewBox="0 0 25 25" fill="none" xmlns="http://www.w3.org/2000/svg">
<path d="M12.4986 1.06122C6.06606 1.06122 0.849609 6.31224 0.849609 12.79C0.849609 17.971 4.18759 22.3663 8.81862 23.9184C9.40103 24.0269 9.61378 23.6648 9.61378 23.3537C9.61378 23.0747 9.60378 22.3372 9.59762 21.3587C6.35742 22.0671 5.67309 19.7861 5.67309 19.7861C5.14438 18.4308 4.37968 18.0703 4.37968 18.0703C3.32089 17.3431 4.45844 17.3579 4.45844 17.3579C5.62778 17.4409 6.24233 18.5668 6.24233 18.5668C7.28213 20.3585 8.9702 19.8414 9.6342 19.5408C9.73895 18.7829 10.0404 18.2661 10.3741 17.9726C7.78749 17.676 5.06699 16.6698 5.06699 12.1768C5.06699 10.896 5.52158 9.84918 6.26699 9.02843C6.14614 8.73194 5.74717 7.5388 6.38071 5.92518C6.38071 5.92518 7.35947 5.60999 9.58445 7.12704C10.5137 6.86703 11.5099 6.73729 12.5015 6.73289C13.4904 6.7389 14.4877 6.86703 15.4184 7.12865C17.6425 5.61136 18.6195 5.92679 18.6195 5.92679C19.2544 7.54188 18.8555 8.73352 18.7361 9.02977C19.483 9.8506 19.9332 10.8974 19.9332 12.1783C19.9332 16.6831 17.2099 17.6745 14.6149 17.965C15.0328 18.3274 15.4055 19.0426 15.4055 20.1364C15.4055 21.705 15.391 22.9694 15.391 23.3537C15.391 23.6674 15.6005 24.0325 16.1918 23.9171C20.8157 22.3632 24.1507 17.9696 24.1507 12.79C24.1507 6.31219 18.9343 1.06122 12.4986 1.06122Z" fill="#F5F5F5"/>
</svg>
