<svg width="25" height="25" viewBox="0 0 25 25" fill="none" xmlns="http://www.w3.org/2000/svg">
<g clip-path="url(#clip0_10_208)">
<path d="M12.5 25C19.4036 25 25 19.4036 25 12.5C25 5.59644 19.4036 0 12.5 0C5.59644 0 0 5.59644 0 12.5C0 19.4036 5.59644 25 12.5 25Z" fill="#323138"/>
<path d="M9.06266 18.1771H6.66683V10.4687H9.06266V18.1771ZM7.76058 9.47915C6.87516 9.47915 6.30225 8.90623 6.30225 8.12498C6.30225 7.34373 6.87516 6.77081 7.76058 6.77081C8.646 6.77081 9.21891 7.34373 9.21891 8.12498C9.21891 8.90623 8.69808 9.47915 7.76058 9.47915ZM18.6981 18.1771H15.9377V14.1666C15.9377 13.125 15.521 12.3958 14.5835 12.3958C13.8543 12.3958 13.4897 12.8646 13.2814 13.3333C13.2293 13.4896 13.2293 13.75 13.2293 13.9583V18.125H10.521C10.521 18.125 10.5731 11.0416 10.521 10.4166H13.2293V11.6146C13.3856 11.0937 14.271 10.3125 15.6252 10.3125C17.3439 10.3125 18.6981 11.4062 18.6981 13.8021V18.1771Z" fill="white"/>
</g>
<defs>
<clipPath id="clip0_10_208">
<rect width="25" height="25" fill="white"/>
</clipPath>
</defs>
</svg>
