<svg width="19" height="19" viewBox="0 0 19 19" fill="none" xmlns="http://www.w3.org/2000/svg">
<path d="M15.4375 17.4167H3.5625C3.24583 17.4167 2.96875 17.2979 2.73125 17.0604C2.49375 16.8229 2.375 16.5458 2.375 16.2292V5.73959C2.375 5.42292 2.49375 5.14584 2.73125 4.90834C2.96875 4.67084 3.24583 4.55209 3.5625 4.55209H5.73958C5.73958 3.50973 6.08924 2.6224 6.78854 1.89011C7.48785 1.15782 8.35868 0.791672 9.40104 0.791672C10.4434 0.791672 11.3472 1.15782 12.1125 1.89011C12.8778 2.6224 13.2604 3.50973 13.2604 4.55209H15.4375C15.7542 4.55209 16.0312 4.67084 16.2688 4.90834C16.5062 5.14584 16.625 5.42292 16.625 5.73959V16.2292C16.625 16.5458 16.5062 16.8229 16.2688 17.0604C16.0312 17.2979 15.7542 17.4167 15.4375 17.4167ZM6.92708 4.55209H12.0729C12.0729 3.82639 11.8255 3.21615 11.3307 2.72136C10.8359 2.22657 10.2257 1.97917 9.5 1.97917C8.77431 1.97917 8.16406 2.22657 7.66927 2.72136C7.17448 3.21615 6.92708 3.82639 6.92708 4.55209ZM15.4375 16.2292V5.73959H3.5625V16.2292H15.4375ZM9.5 10.4896C10.4632 10.4896 11.3406 10.1498 12.1323 9.47032C12.924 8.7908 13.3198 8.02882 13.3198 7.18438C13.3198 7.03924 13.2604 6.9106 13.1417 6.79844C13.0229 6.68629 12.8778 6.63021 12.7062 6.63021C12.5611 6.63021 12.4325 6.67969 12.3203 6.77865C12.2082 6.87761 12.1389 7.00626 12.1125 7.16459C11.9806 7.78473 11.6672 8.29601 11.1724 8.69844C10.6776 9.10087 10.1201 9.30209 9.5 9.30209C8.87986 9.30209 8.3224 9.10087 7.8276 8.69844C7.33281 8.29601 7.01944 7.78473 6.8875 7.16459C6.86111 7.00626 6.78854 6.87761 6.66979 6.77865C6.55104 6.67969 6.4191 6.63021 6.27396 6.63021C6.11563 6.63021 5.97708 6.68629 5.85833 6.79844C5.73958 6.9106 5.68021 7.03924 5.68021 7.18438C5.68021 8.02882 6.07274 8.7908 6.85781 9.47032C7.64288 10.1498 8.52361 10.4896 9.5 10.4896Z" fill="white"/>
</svg>
