<svg width="25" height="25" viewBox="0 0 25 25" fill="none" xmlns="http://www.w3.org/2000/svg">
<path d="M7.60417 11.8229C7.91667 11.1979 8.25087 10.5816 8.60677 9.97396C8.96267 9.36632 9.34028 8.78472 9.73958 8.22917L7.68229 7.8125L4.84375 10.651L7.60417 11.8229ZM21.0156 3.69792C19.2448 3.78472 17.6476 4.16233 16.224 4.83073C14.8003 5.49913 13.4115 6.51042 12.0573 7.86459C11.5191 8.40278 10.9635 9.1059 10.3906 9.97396C9.81771 10.842 9.30556 11.7708 8.85417 12.7604L12.3177 16.224C13.3073 15.7726 14.2361 15.2604 15.1042 14.6875C15.9722 14.1146 16.6753 13.559 17.2135 13.0208C18.5677 11.6667 19.579 10.2821 20.2474 8.86719C20.9158 7.45226 21.2934 5.85938 21.3802 4.08854C21.3802 4.03646 21.3715 3.98438 21.3542 3.93229C21.3368 3.88021 21.3108 3.83681 21.276 3.80209C21.2413 3.76736 21.2023 3.74132 21.1589 3.72396C21.1155 3.7066 21.0677 3.69792 21.0156 3.69792ZM14.8437 10.2604C14.4965 9.9132 14.3229 9.48351 14.3229 8.97136C14.3229 8.4592 14.4965 8.02952 14.8437 7.68229C15.191 7.33507 15.6207 7.16146 16.1328 7.16146C16.645 7.16146 17.0747 7.33507 17.4219 7.68229C17.7691 8.02952 17.9427 8.4592 17.9427 8.97136C17.9427 9.48351 17.7691 9.9132 17.4219 10.2604C17.0747 10.6076 16.645 10.7813 16.1328 10.7813C15.6207 10.7813 15.191 10.6076 14.8437 10.2604ZM13.2552 17.5L14.4271 20.2344L17.2656 17.3958L16.875 15.3385C16.3194 15.7378 15.7335 16.1198 15.1172 16.4844C14.5009 16.849 13.8802 17.1875 13.2552 17.5ZM22.9687 2.94271C23.0208 5.11285 22.6693 7.11372 21.9141 8.94531C21.1589 10.7769 19.9653 12.5087 18.3333 14.1406C18.316 14.158 18.2986 14.171 18.2812 14.1797C18.2639 14.1884 18.2465 14.2014 18.2292 14.2188L18.8021 17.0833C18.8542 17.3438 18.8455 17.5955 18.776 17.8385C18.7066 18.0816 18.5764 18.2986 18.3854 18.4896L14.7135 22.1615C14.5226 22.3524 14.2925 22.4219 14.0234 22.3698C13.7543 22.3177 13.5677 22.1615 13.4635 21.901L11.6927 17.8125L7.29167 13.3854L3.17708 11.6406C2.91667 11.5365 2.76476 11.3455 2.72135 11.0677C2.67795 10.7899 2.75174 10.5556 2.94271 10.3646L6.58854 6.71875C6.77951 6.52778 6.99653 6.39323 7.23958 6.31511C7.48264 6.23698 7.73437 6.22396 7.99479 6.27604L10.8594 6.84896C10.8767 6.8316 10.8941 6.81858 10.9115 6.8099C10.9288 6.80122 10.9462 6.7882 10.9635 6.77084C12.5955 5.13889 14.3229 3.94531 16.1458 3.19011C17.9687 2.4349 19.9653 2.08334 22.1354 2.13542C22.2396 2.13542 22.3394 2.15712 22.4349 2.20052C22.5304 2.24393 22.6215 2.30903 22.7083 2.39584C22.7951 2.48264 22.8602 2.56945 22.9036 2.65625C22.947 2.74306 22.9687 2.83854 22.9687 2.94271ZM3.88021 16.5365C4.48785 15.9288 5.23003 15.6207 6.10677 15.612C6.98351 15.6033 7.72569 15.9028 8.33333 16.5104C8.94097 17.1181 9.24045 17.8602 9.23177 18.737C9.22309 19.6137 8.91493 20.3559 8.30729 20.9635C7.8559 21.4149 7.15712 21.7882 6.21094 22.0833C5.26476 22.3785 3.84549 22.6563 1.95312 22.9167C2.21354 21.0243 2.48698 19.6007 2.77344 18.6458C3.0599 17.691 3.42882 16.9878 3.88021 16.5365ZM4.97396 17.6563C4.7309 17.9167 4.51389 18.3247 4.32292 18.8802C4.13194 19.4358 3.96701 20.1476 3.82812 21.0156C4.69618 20.8767 5.40799 20.7118 5.96354 20.5208C6.5191 20.3299 6.92708 20.1129 7.1875 19.8698C7.51736 19.5747 7.68663 19.2057 7.69531 18.763C7.70399 18.3203 7.55208 17.934 7.23958 17.6042C6.90972 17.2917 6.52344 17.1398 6.08073 17.1484C5.63802 17.1571 5.2691 17.3264 4.97396 17.6563Z" fill="#D6D6D6"/>
</svg>
